<svg width="105" height="33" viewBox="0 0 105 33" fill="none" xmlns="http://www.w3.org/2000/svg">
<path d="M15.3851 7.13361L33.3263 5.30874C33.3263 8.24068 30.4908 10.3403 26.993 10.3403H21.7009L18.193 9.95389L18.2099 9.92352C16.9154 9.3065 15.9045 8.31955 15.3851 7.13361Z" fill="#FFC250"/>
<path d="M33.4941 5.30873C33.4941 5.95098 32.9269 6.80461 32.0722 7.13363L15.3851 7.13361C15.1357 6.5646 15 5.95054 15 5.30877C15 4.66652 15.143 4.05368 15.3922 3.48387H32.6587C33.1586 3.85146 33.4941 4.66648 33.4941 5.30873Z" fill="#DB4655"/>
<path d="M32.6587 3.48387H15.3922C16.2809 1.45236 18.6017 0 21.3333 0H27.6667C28.7123 0 29.6977 0.212785 30.5657 0.589417C31.9651 1.19671 33.1426 3.15838 32.6587 3.48387Z" fill="black"/>
<path d="M16.9714 12.1482L18.193 9.95389L26.4792 9.95388C28.9037 9.95388 31.0079 8.81092 32.0722 7.13363L32.9429 6.64386L33.6159 7.13368C32.7281 9.16662 30.3995 10.6175 27.6667 10.6175H21.7009L18.0376 12.8801C17.4444 13.2464 16.6599 12.7078 16.9714 12.1482Z" fill="#FFC250"/>
<path d="M32.8125 4.64511C32.8125 4.24598 32.7585 3.85769 32.6587 3.48387L33.6078 3.48383C33.857 4.05364 34 4.66644 34 5.3087C34 5.95095 33.8652 6.56387 33.6159 7.13368L32.0722 7.13363C32.5434 6.39118 32.8125 5.54482 32.8125 4.64511Z" fill="#DB4655"/>
<path d="M32.6587 3.48387C32.3518 2.3348 31.6022 1.3242 30.5657 0.589417C31.9684 1.19615 33.0657 2.22994 33.6148 3.48387L32.6587 3.48387Z" fill="#4B3F4E"/>
<path d="M0.82 32V11.6H7.72C10.16 11.6 12.02 12.28 13.3 13.64C14.58 15 15.22 17 15.22 19.64V23.93C15.22 26.59 14.58 28.6 13.3 29.96C12.02 31.32 10.16 32 7.72 32H0.82ZM7.57 15.05H4.42V28.55H7.57C8.99 28.55 10 28.2 10.6 27.5C11.22 26.8 11.53 25.61 11.53 23.93V19.64C11.53 17.98 11.22 16.8 10.6 16.1C10 15.4 8.99 15.05 7.57 15.05Z" fill="black"/>
<path d="M31.0802 31.13C30.0402 31.55 29.0602 31.85 28.1402 32.03C27.2202 32.21 26.3502 32.3 25.5302 32.3C23.2702 32.3 21.5602 31.66 20.4002 30.38C19.2402 29.1 18.6602 27.4 18.6602 25.28V23.48C18.6602 22.06 18.9202 20.83 19.4402 19.79C19.9602 18.75 20.7002 17.94 21.6602 17.36C22.6202 16.78 23.7502 16.49 25.0502 16.49C26.1102 16.49 27.1002 16.71 28.0202 17.15C28.9602 17.57 29.7202 18.24 30.3002 19.16C30.9002 20.06 31.2002 21.22 31.2002 22.64C31.2002 23.06 31.1702 23.51 31.1102 23.99C31.0502 24.45 30.9502 24.94 30.8102 25.46H21.9902C22.0302 26.7 22.3402 27.63 22.9202 28.25C23.5002 28.87 24.4302 29.18 25.7102 29.18C26.3902 29.18 27.0902 29.1 27.8102 28.94C28.5502 28.78 29.3102 28.54 30.0902 28.22L31.0802 31.13ZM25.0502 19.4C24.1302 19.4 23.4102 19.7 22.8902 20.3C22.3902 20.88 22.1002 21.72 22.0202 22.82H27.7802C27.8002 22.72 27.8102 22.63 27.8102 22.55C27.8102 22.45 27.8102 22.36 27.8102 22.28C27.8102 21.32 27.5402 20.6 27.0002 20.12C26.4602 19.64 25.8102 19.4 25.0502 19.4Z" fill="black"/>
<path d="M44.2347 32V29.99C43.3147 30.79 42.4547 31.38 41.6547 31.76C40.8547 32.12 40.0447 32.3 39.2247 32.3C37.8647 32.3 36.8147 31.84 36.0747 30.92C35.3347 29.98 34.9647 28.67 34.9647 26.99V16.79H38.4147V26.57C38.4147 28.25 39.0347 29.09 40.2747 29.09C40.7747 29.09 41.3147 28.97 41.8947 28.73C42.4947 28.49 43.2147 28.03 44.0547 27.35V16.79H47.5047V32H44.2347Z" fill="black"/>
<path d="M61.4048 31.49C60.8848 31.73 60.2848 31.92 59.6048 32.06C58.9248 32.22 58.2348 32.3 57.5348 32.3C56.3748 32.3 55.4448 32.06 54.7448 31.58C54.0448 31.1 53.5348 30.43 53.2148 29.57C52.9148 28.71 52.7648 27.73 52.7648 26.63V19.79H50.3048V16.79H52.7648V12.83H56.2148V16.79H60.9548V19.79H56.2148V26.63C56.2148 27.55 56.3848 28.19 56.7248 28.55C57.0848 28.89 57.5948 29.06 58.2548 29.06C58.5748 29.06 58.9148 29.03 59.2748 28.97C59.6548 28.89 60.0748 28.76 60.5348 28.58L61.4048 31.49Z" fill="black"/>
<path d="M68.4386 29.3C69.1786 29.3 69.7886 29.18 70.2686 28.94C70.7486 28.68 70.9886 28.3 70.9886 27.8C70.9886 27.36 70.8286 27.02 70.5086 26.78C70.2086 26.52 69.6586 26.29 68.8586 26.09L67.1486 25.64C65.8286 25.3 64.8486 24.73 64.2086 23.93C63.5886 23.13 63.2786 22.18 63.2786 21.08C63.2786 19.78 63.7286 18.69 64.6286 17.81C65.5286 16.93 66.9186 16.49 68.7986 16.49C69.5586 16.49 70.3586 16.58 71.1986 16.76C72.0386 16.94 72.9186 17.23 73.8386 17.63L72.8486 20.57C72.0086 20.17 71.2486 19.89 70.5686 19.73C69.8886 19.57 69.2886 19.49 68.7686 19.49C67.3486 19.49 66.6386 19.97 66.6386 20.93C66.6386 21.31 66.7586 21.61 66.9986 21.83C67.2586 22.05 67.7286 22.25 68.4086 22.43L70.1186 22.88C71.5786 23.26 72.6386 23.84 73.2986 24.62C73.9786 25.4 74.3186 26.38 74.3186 27.56C74.3186 28.96 73.8386 30.1 72.8786 30.98C71.9386 31.86 70.4486 32.3 68.4086 32.3C66.6686 32.3 64.8386 31.9 62.9186 31.1L63.8486 28.25C64.7886 28.63 65.6386 28.9 66.3986 29.06C67.1586 29.22 67.8386 29.3 68.4386 29.3Z" fill="black"/>
<path d="M80.5002 23.51V25.28C80.5002 26.56 80.7302 27.52 81.1902 28.16C81.6502 28.8 82.3902 29.12 83.4102 29.12C83.9102 29.12 84.4702 29.06 85.0902 28.94C85.7302 28.8 86.4202 28.59 87.1602 28.31L88.1502 31.22C87.2502 31.58 86.4002 31.85 85.6002 32.03C84.8002 32.21 84.0102 32.3 83.2302 32.3C81.2302 32.3 79.7002 31.66 78.6402 30.38C77.5802 29.1 77.0502 27.4 77.0502 25.28V23.51C77.0502 21.37 77.5802 19.67 78.6402 18.41C79.7002 17.13 81.2302 16.49 83.2302 16.49C83.9902 16.49 84.7602 16.58 85.5402 16.76C86.3202 16.94 87.1402 17.2 88.0002 17.54L87.0102 20.51C85.5702 19.95 84.3702 19.67 83.4102 19.67C82.3902 19.67 81.6502 19.99 81.1902 20.63C80.7302 21.25 80.5002 22.21 80.5002 23.51Z" fill="black"/>
<path d="M98.7475 19.7C98.2475 19.7 97.6775 19.82 97.0375 20.06C96.3975 20.3 95.6375 20.77 94.7575 21.47V32H91.3075V9.8H94.7575V18.68C95.6775 17.9 96.5375 17.34 97.3375 17C98.1375 16.66 98.9575 16.49 99.7975 16.49C101.258 16.49 102.368 16.96 103.128 17.9C103.888 18.82 104.268 20.12 104.268 21.8V32H100.817V22.22C100.817 20.54 100.127 19.7 98.7475 19.7Z" fill="black"/>
</svg>
